HIERARCHY
ROOT Root
{
  OFFSET 0.0 0.0 0.0
  CHANNELS 6 Xposition Yposition Zposition Zrotation Yrotation Xrotation
  JOINT Hips
  {
    OFFSET 0.0 100.0 0.0
    CHANNELS 6 Xposition Yposition Zposition Zrotation Yrotation Xrotation
    JOINT Spine1
    {
      OFFSET 5.003913 -0.037094 -0.013727
      CHANNELS 3 Zrotation Yrotation Xrotation
      JOINT Spine2
      {
        OFFSET 7.125363 -1e-06 0.0
        CHANNELS 3 Zrotation Yrotation Xrotation
        JOINT Chest
        {
          OFFSET 7.594027 1e-06 0.0
          CHANNELS 3 Zrotation Yrotation Xrotation
          JOINT Neck1
          {
            OFFSET 26.313086 -0.460272 -0.181672
            CHANNELS 3 Zrotation Yrotation Xrotation
            JOINT Neck2
            {
              OFFSET 8.045911 0.0 0.0
              CHANNELS 3 Zrotation Yrotation Xrotation
              JOINT Head
              {
                OFFSET 6.432774 0.0 0.0
                CHANNELS 3 Zrotation Yrotation Xrotation
                JOINT HeadEnd
                {
                  OFFSET 16.169773 0.06451 0.00362
                  CHANNELS 3 Zrotation Yrotation Xrotation
                }
                JOINT Jaw
                {
                  OFFSET 0.108741 3.12938 0.002639
                  CHANNELS 3 Zrotation Yrotation Xrotation
                }
                JOINT LeftEye
                {
                  OFFSET 4.45173 8.166359 3.206392
                  CHANNELS 3 Zrotation Yrotation Xrotation
                }
                JOINT RightEye
                {
                  OFFSET 4.436895 8.135758 -3.222429
                  CHANNELS 3 Zrotation Yrotation Xrotation
                }
              }
            }
          }
          JOINT LeftShoulder
          {
            OFFSET 23.218927 5.195579 1.621656
            CHANNELS 3 Zrotation Yrotation Xrotation
            JOINT LeftArm
            {
              OFFSET 15.902118 2e-06 -2e-06
              CHANNELS 3 Zrotation Yrotation Xrotation
              JOINT LeftForeArm
              {
                OFFSET 28.739307 0.0 -1e-06
                CHANNELS 3 Zrotation Yrotation Xrotation
                JOINT LeftHand
                {
                  OFFSET 27.093981 -4e-06 0.0
                  CHANNELS 3 Zrotation Yrotation Xrotation
                  JOINT LeftHandThumb1
                  {
                    OFFSET 2.276781 3.380274 0.83384
                    CHANNELS 3 Zrotation Yrotation Xrotation
                    JOINT LeftHandThumb2
                    {
                      OFFSET 4.705309 -1e-06 -1e-06
                      CHANNELS 3 Zrotation Yrotation Xrotation
                      JOINT LeftHandThumb3
                      {
                        OFFSET 2.798515 0.0 3e-06
                        CHANNELS 3 Zrotation Yrotation Xrotation
                        JOINT LeftHandThumbEnd
                        {
                          OFFSET 3.180793 4e-06 -4e-06
                          CHANNELS 3 Zrotation Yrotation Xrotation
                        }
                      }
                    }
                  }
                  JOINT LeftHandIndex1
                  {
                    OFFSET 3.247786 2.352677 0.137192
                    CHANNELS 3 Zrotation Yrotation Xrotation
                    JOINT LeftHandIndex2
                    {
                      OFFSET 6.367095 1e-06 0.0
                      CHANNELS 3 Zrotation Yrotation Xrotation
                      JOINT LeftHandIndex3
                      {
                        OFFSET 3.662364 0.0 0.0
                        CHANNELS 3 Zrotation Yrotation Xrotation
                        JOINT LeftHandIndex4
                        {
                          OFFSET 2.329242 4e-06 -4e-06
                          CHANNELS 3 Zrotation Yrotation Xrotation
                          JOINT LeftHandIndexEnd
                          {
                            OFFSET 2.767823 1e-06 0.0
                            CHANNELS 3 Zrotation Yrotation Xrotation
                          }
                        }
                      }
                    }
                  }
                  JOINT LeftHandMiddle1
                  {
                    OFFSET 3.163612 0.945023 -0.406112
                    CHANNELS 3 Zrotation Yrotation Xrotation
                    JOINT LeftHandMiddle2
                    {
                      OFFSET 6.276789 3e-06 0.0
                      CHANNELS 3 Zrotation Yrotation Xrotation
                      JOINT LeftHandMiddle3
                      {
                        OFFSET 4.35652 -1e-06 4e-06
                        CHANNELS 3 Zrotation Yrotation Xrotation
                        JOINT LeftHandMiddle4
                        {
                          OFFSET 2.996877 0.0 8e-06
                          CHANNELS 3 Zrotation Yrotation Xrotation
                          JOINT LeftHandMiddleEnd
                          {
                            OFFSET 2.323256 3e-06 -4e-06
                            CHANNELS 3 Zrotation Yrotation Xrotation
                          }
                        }
                      }
                    }
                  }
                  JOINT LeftHandRing1
                  {
                    OFFSET 2.882606 -0.309162 0.107445
                    CHANNELS 3 Zrotation Yrotation Xrotation
                    JOINT LeftHandRing2
                    {
                      OFFSET 6.033198 0.0 4e-06
                      CHANNELS 3 Zrotation Yrotation Xrotation
                      JOINT LeftHandRing3
                      {
                        OFFSET 4.350578 3e-06 0.0
                        CHANNELS 3 Zrotation Yrotation Xrotation
                        JOINT LeftHandRing4
                        {
                          OFFSET 2.651321 2e-06 -7e-06
                          CHANNELS 3 Zrotation Yrotation Xrotation
                          JOINT LeftHandRingEnd
                          {
                            OFFSET 1.937663 1e-06 -4e-06
                            CHANNELS 3 Zrotation Yrotation Xrotation
                          }
                        }
                      }
                    }
                  }
                  JOINT LeftHandPinky1
                  {
                    OFFSET 2.865315 -1.525436 0.575687
                    CHANNELS 3 Zrotation Yrotation Xrotation
                    JOINT LeftHandPinky2
                    {
                      OFFSET 5.54936 1e-06 -8e-06
                      CHANNELS 3 Zrotation Yrotation Xrotation
                      JOINT LeftHandPinky3
                      {
                        OFFSET 3.070974 0.0 -4e-06
                        CHANNELS 3 Zrotation Yrotation Xrotation
                        JOINT LeftHandPinky4
                        {
                          OFFSET 1.549672 1e-06 0.0
                          CHANNELS 3 Zrotation Yrotation Xrotation
                          JOINT LeftHandPinkyEnd
                          {
                            OFFSET 1.952123 0.0 0.0
                            CHANNELS 3 Zrotation Yrotation Xrotation
                          }
                        }
                      }
                    }
                  }
                }
              }
            }
          }
          JOINT RightShoulder
          {
            OFFSET 23.161716 5.296122 -1.380114
            CHANNELS 3 Zrotation Yrotation Xrotation
            JOINT RightArm
            {
              OFFSET -16.027195 -2e-06 1.1e-05
              CHANNELS 3 Zrotation Yrotation Xrotation
              JOINT RightForeArm
              {
                OFFSET -28.736639 4e-06 2e-06
                CHANNELS 3 Zrotation Yrotation Xrotation
                JOINT RightHand
                {
                  OFFSET -27.133619 6e-06 0.0
                  CHANNELS 3 Zrotation Yrotation Xrotation
                  JOINT RightHandThumb1
                  {
                    OFFSET -2.274328 -3.351035 -0.83067
                    CHANNELS 3 Zrotation Yrotation Xrotation
                    JOINT RightHandThumb2
                    {
                      OFFSET -4.703594 -3e-06 2e-06
                      CHANNELS 3 Zrotation Yrotation Xrotation
                      JOINT RightHandThumb3
                      {
                        OFFSET -2.794935 -4e-06 -3e-06
                        CHANNELS 3 Zrotation Yrotation Xrotation
                        JOINT RightHandThumbEnd
                        {
                          OFFSET -3.183852 4e-06 1e-06
                          CHANNELS 3 Zrotation Yrotation Xrotation
                        }
                      }
                    }
                  }
                  JOINT RightHandIndex1
                  {
                    OFFSET -3.253496 -2.33755 -0.127667
                    CHANNELS 3 Zrotation Yrotation Xrotation
                    JOINT RightHandIndex2
                    {
                      OFFSET -6.344434 0.0 0.0
                      CHANNELS 3 Zrotation Yrotation Xrotation
                      JOINT RightHandIndex3
                      {
                        OFFSET -3.654871 0.0 -8e-06
                        CHANNELS 3 Zrotation Yrotation Xrotation
                        JOINT RightHandIndex4
                        {
                          OFFSET -2.327586 -1e-06 0.0
                          CHANNELS 3 Zrotation Yrotation Xrotation
                          JOINT RightHandIndexEnd
                          {
                            OFFSET -2.770001 3e-06 8e-06
                            CHANNELS 3 Zrotation Yrotation Xrotation
                          }
                        }
                      }
                    }
                  }
                  JOINT RightHandMiddle1
                  {
                    OFFSET -3.168223 -0.944764 0.411762
                    CHANNELS 3 Zrotation Yrotation Xrotation
                    JOINT RightHandMiddle2
                    {
                      OFFSET -6.266691 -1e-06 -4e-06
                      CHANNELS 3 Zrotation Yrotation Xrotation
                      JOINT RightHandMiddle3
                      {
                        OFFSET -4.348901 0.0 0.0
                        CHANNELS 3 Zrotation Yrotation Xrotation
                        JOINT RightHandMiddle4
                        {
                          OFFSET -3.00024 2e-06 -4e-06
                          CHANNELS 3 Zrotation Yrotation Xrotation
                          JOINT RightHandMiddleEnd
                          {
                            OFFSET -2.321477 -4e-06 -4e-06
                            CHANNELS 3 Zrotation Yrotation Xrotation
                          }
                        }
                      }
                    }
                  }
                  JOINT RightHandRing1
                  {
                    OFFSET -2.885654 0.293261 -0.119232
                    CHANNELS 3 Zrotation Yrotation Xrotation
                    JOINT RightHandRing2
                    {
                      OFFSET -6.032835 -1e-06 -4e-06
                      CHANNELS 3 Zrotation Yrotation Xrotation
                      JOINT RightHandRing3
                      {
                        OFFSET -4.33881 0.0 -4e-06
                        CHANNELS 3 Zrotation Yrotation Xrotation
                        JOINT RightHandRing4
                        {
                          OFFSET -2.654903 -4e-06 -4e-06
                          CHANNELS 3 Zrotation Yrotation Xrotation
                          JOINT RightHandRingEnd
                          {
                            OFFSET -1.935122 0.0 4e-06
                            CHANNELS 3 Zrotation Yrotation Xrotation
                          }
                        }
                      }
                    }
                  }
                  JOINT RightHandPinky1
                  {
                    OFFSET -2.866241 1.503904 -0.60527
                    CHANNELS 3 Zrotation Yrotation Xrotation
                    JOINT RightHandPinky2
                    {
                      OFFSET -5.553177 -2e-06 0.0
                      CHANNELS 3 Zrotation Yrotation Xrotation
                      JOINT RightHandPinky3
                      {
                        OFFSET -3.062664 -1e-06 -4e-06
                        CHANNELS 3 Zrotation Yrotation Xrotation
                        JOINT RightHandPinky4
                        {
                          OFFSET -1.546529 2e-06 4e-06
                          CHANNELS 3 Zrotation Yrotation Xrotation
                          JOINT RightHandPinkyEnd
                          {
                            OFFSET -1.952341 0.0 -4e-06
                            CHANNELS 3 Zrotation Yrotation Xrotation
                          }
                        }
                      }
                    }
                  }
                }
              }
            }
          }
        }
      }
    }
    JOINT LeftLeg
    {
      OFFSET -8.443107 2.567604 10.043214
      CHANNELS 3 Zrotation Yrotation Xrotation
      JOINT LeftShin
      {
        OFFSET 43.229198 1e-06 -1e-06
        CHANNELS 3 Zrotation Yrotation Xrotation
        JOINT LeftFoot
        {
          OFFSET 42.298611 1e-06 1e-06
          CHANNELS 3 Zrotation Yrotation Xrotation
          JOINT LeftToeBase
          {
            OFFSET 14.165858 1e-06 0.0
            CHANNELS 3 Zrotation Yrotation Xrotation
            JOINT LeftToeEnd
            {
              OFFSET 6.7141 -0.234461 0.0
              CHANNELS 3 Zrotation Yrotation Xrotation
            }
          }
        }
      }
    }
    JOINT RightLeg
    {
      OFFSET -8.303923 2.592729 -10.047278
      CHANNELS 3 Zrotation Yrotation Xrotation
      JOINT RightShin
      {
        OFFSET -43.369682 0.0 1e-06
        CHANNELS 3 Zrotation Yrotation Xrotation
        JOINT RightFoot
        {
          OFFSET -42.260784 4e-06 2e-06
          CHANNELS 3 Zrotation Yrotation Xrotation
          JOINT RightToeBase
          {
            OFFSET -14.222245 -2e-06 -1e-06
            CHANNELS 3 Zrotation Yrotation Xrotation
            JOINT RightToeEnd
            {
              OFFSET -6.660062 0.232574 -2e-06
              CHANNELS 3 Zrotation Yrotation Xrotation
            }
          }
        }
      }
    }
  }
}
MOTION
Frames: 4
Frame Time: 0.03333333333333333
0.0 0.0 0.0 0.0 -0.0 0.0 -0.595353 99.958191 6.182633 93.89312 1.62964 90.217155 2.846949 -0.271329 0.199582 -10.360361 -0.327548 0.903783 18.198757 -1.875728 -1.90139 28.35816 -9.244125 3.399693 -2.267726 -0.662418 7.036296 -18.217791 -2.548927 9.825819 5e-06 -0.0 0.0 -0.106077 0.051359 -0.141686 0.077379 0.18165 -0.131005 0.148384 -0.093942 -0.135812 -106.532562 -72.669846 125.539421 25.860638 -49.641346 25.791792 42.35067 -1.479405 -0.495065 25.014036 22.069433 15.409274 17.636639 -26.322741 52.411209 -19.46666 -14.395598 29.410389 -0.0 -8.774822 -1e-06 15.163007 -18.729795 6.530514 -0.609778 -1.795653 -3.889328 -4.807091 -11.046812 -2.93785 4e-06 -20.976015 1e-06 -5.019971 -25.03356 -4.031878 5e-06 1e-06 2e-06 -10.634536 -5.686969 -3.565591 10.573275 -17.922947 -3.113899 2e-06 -13.821206 1e-06 -0.501779 -31.181501 -4.027012 -11.432429 -59.105793 7.220573 -13.982718 -7.150199 -2.875045 13.77273 -8.401492 -3.218241 0.347735 -34.211552 0.771658 -0.963031 -17.73337 2.621022 -1e-06 1e-06 -1e-06 -17.346422 -20.095215 -4.201783 21.757559 -1.638376 3.866431 0.0 -6.338824 2e-06 -1.697591 -22.591747 -6.194005 -2e-06 -5e-06 -2e-06 81.288818 -77.074432 119.017143 43.39856 -43.802368 17.785486 41.553654 0.237849 0.329307 4.156613 24.229506 22.954386 22.182108 -20.375895 49.933308 -16.701817 -16.74353 28.47653 -2e-06 -12.6906 0.0 16.863277 -18.149281 2.205799 -0.105919 -1.513857 -4.275883 -5.039041 -5.612873 -2.953557 5e-06 -11.020523 -1e-06 -6.111295 -15.89533 -3.840473 0.0 -0.0 1e-06 -10.283371 -5.680291 -4.341839 11.028295 -11.302402 -2.372635 -1.384268 -14.238577 -6.32012 -0.625436 -26.924183 -3.827599 -4.51097 -49.600319 -3.997606 -13.708526 -7.363478 -3.720937 18.141151 -14.052739 -3.242676 8e-06 -18.787266 -2e-06 -0.429712 -8.456043 2.555503 0.0 -0.0 1e-06 -15.923534 -20.094482 -5.473584 30.41921 -7.190826 1.735924 2e-06 -8.162926 -0.0 -1.861902 -22.861467 -6.167942 -1e-06 -3e-06 -1e-06 -178.856094 -1.539719 -8.269304 9.723377 -0.022745 -0.096771 -74.607887 -4.331545 -9.738272 -5.487777 1.626501 2.145335 -0.999999 -0.0 0.0 1.19188 -12.550168 -9.12309 13.309382 -0.040142 0.276734 -80.662376 7.394384 -6.798378 -5.446155 0.677215 1.683044 -1.000002 0.0 0.0 
0.0 0.0 0.0 0.0 -0.0 0.0 -0.37017 100.010071 6.351847 93.907784 1.551168 90.100182 2.796301 -0.30215 0.157935 -10.373114 -0.2963 0.913334 18.066591 -1.841411 -1.920427 28.181252 -9.107873 3.404313 -2.242394 -0.598174 7.093706 -18.000568 -2.586418 9.750447 5e-06 -0.0 0.0 -0.118076 0.038399 -0.112934 0.080969 0.180063 -0.094836 0.154998 -0.117962 -0.115899 -105.763489 -72.642365 124.770645 24.423435 -49.809807 26.659378 41.815113 -1.893097 -0.650963 26.107141 20.384148 17.067799 17.636621 -26.322733 52.411194 -19.466663 -14.395596 29.410389 -0.0 -8.774822 -0.0 15.207784 -18.64653 6.43532 -0.609776 -1.795655 -3.889327 -4.807087 -11.046811 -2.937851 7e-06 -20.976019 -1e-06 -5.019968 -25.03356 -4.031878 7e-06 -0.0 -0.0 -10.634535 -5.686974 -3.565586 10.573275 -17.922953 -3.113902 4e-06 -13.821213 0.0 -0.501775 -31.181507 -4.027017 -11.292406 -59.245914 7.217716 -13.982712 -7.150198 -2.875044 13.772727 -8.401492 -3.21824 0.347734 -34.211552 0.771657 -0.963029 -17.73337 2.621018 -0.0 -1e-06 1e-06 -17.346418 -20.095219 -4.201778 21.757557 -1.638375 3.866425 0.0 -6.338825 2e-06 -1.697591 -22.591747 -6.194004 -0.0 -5e-06 -3e-06 81.023399 -76.740227 119.506882 41.621834 -44.406765 19.223042 41.623734 0.195007 0.335419 4.552835 23.777479 23.073793 22.18211 -20.375891 49.933319 -16.701817 -16.74353 28.476534 -1e-06 -12.6906 0.0 16.814074 -18.144283 2.294288 -0.105919 -1.513854 -4.275882 -5.039041 -5.612874 -2.953557 5e-06 -11.020525 -2e-06 -6.111297 -15.895338 -3.840471 0.0 0.0 1e-06 -10.28337 -5.680287 -4.341839 11.028296 -11.302402 -2.372634 -1.384267 -14.23858 -6.32012 -0.625435 -26.924187 -3.827602 -4.511949 -49.811039 -3.893626 -13.708524 -7.363473 -3.720942 18.14115 -14.052739 -3.242676 7e-06 -18.78727 -2e-06 -0.429711 -8.456043 2.555503 0.0 -0.0 1e-06 -15.923532 -20.094482 -5.473587 30.419218 -7.190827 1.735922 3e-06 -8.162927 -0.0 -1.861899 -22.861469 -6.167942 0.0 -3e-06 0.0 -178.595749 -1.344789 -8.362253 9.208427 -0.008391 -0.029539 -74.424294 -4.363407 -9.834033 -5.499941 1.633791 2.142321 -0.999999 -0.0 0.0 1.454913 -12.695957 -9.251372 12.744497 -0.037594 0.246104 -80.364906 7.582959 -6.82541 -5.562394 0.628746 1.668124 -1.000001 -0.0 0.0 
0.0 0.0 0.0 0.0 -0.0 0.0 -0.187406 100.010956 6.373621 93.94931 1.474541 89.976097 2.749775 -0.368003 0.154157 -10.382069 -0.288584 0.892116 18.037626 -1.750352 -1.918424 28.014149 -9.023513 3.424036 -2.254142 -0.536248 7.158219 -17.871622 -2.642318 9.774304 4e-06 -1e-06 0.0 -0.115343 0.038006 -0.110763 0.073817 0.18401 -0.086796 0.153264 -0.122792 -0.121164 -105.624352 -72.589035 124.651962 23.236029 -49.802559 27.439877 41.371769 -2.144757 -0.718594 26.776371 19.217802 18.07617 17.636627 -26.322737 52.411186 -19.466665 -14.395597 29.410393 -1e-06 -8.774821 -0.0 15.235584 -18.64382 6.382936 -0.609776 -1.795653 -3.889327 -4.807087 -11.046808 -2.937853 6e-06 -20.976019 -1e-06 -5.019969 -25.033558 -4.031878 6e-06 0.0 0.0 -10.634533 -5.686969 -3.565588 10.573275 -17.922953 -3.113901 3e-06 -13.821211 2e-06 -0.501777 -31.181507 -4.027012 -11.258429 -59.295536 7.205925 -13.982712 -7.150198 -2.875041 13.772728 -8.401493 -3.218243 0.347736 -34.211552 0.771657 -0.963028 -17.73337 2.621018 -0.0 2e-06 1e-06 -17.346418 -20.095219 -4.201779 21.757557 -1.638378 3.866429 3e-06 -6.338824 -1e-06 -1.69759 -22.591745 -6.194005 -0.0 -4e-06 -2e-06 80.080345 -76.433144 120.65641 39.774452 -44.729038 20.66604 41.776249 0.125613 0.291595 4.935581 23.566292 23.284264 22.182114 -20.375895 49.933319 -16.701815 -16.743528 28.476532 -1e-06 -12.690601 -0.0 16.734009 -18.109406 2.351485 -0.105919 -1.513855 -4.275881 -5.039042 -5.612873 -2.953556 4e-06 -11.020527 -2e-06 -6.111297 -15.895334 -3.840471 0.0 0.0 1e-06 -10.283369 -5.680284 -4.341838 11.028296 -11.302407 -2.372634 -1.384268 -14.238581 -6.320122 -0.625438 -26.924191 -3.8276 -4.463393 -49.834579 -3.88444 -13.708527 -7.363475 -3.720939 18.14115 -14.052739 -3.242675 6e-06 -18.78727 -1e-06 -0.429712 -8.456043 2.555504 0.0 0.0 0.0 -15.923532 -20.094484 -5.473582 30.41921 -7.190824 1.735922 2e-06 -8.162926 -1e-06 -1.861902 -22.861469 -6.167941 -1e-06 -3e-06 -1e-06 -178.560547 -1.170922 -8.52081 9.041018 -0.003962 0.003742 -74.481514 -4.278845 -9.824167 -5.485555 1.623708 2.143291 -1.0 0.0 0.0 1.372445 -12.893871 -9.379973 12.695153 -0.030799 0.210395 -80.231682 7.885209 -6.927812 -5.591101 0.610552 1.664358 -1.000002 -0.0 0.0 
0.0 0.0 0.0 0.0 -0.0 0.0 -0.018562 99.973717 6.314506 94.007561 1.441887 89.825768 2.741435 -0.456819 0.155552 -10.399401 -0.290808 0.867329 18.070694 -1.675087 -1.884414 27.891254 -8.935107 3.446579 -2.263715 -0.508742 7.25019 -17.907818 -2.648505 9.826406 5e-06 -0.0 -0.0 -0.109508 0.037616 -0.109784 0.06309 0.184547 -0.081177 0.14658 -0.124364 -0.125756 -105.802895 -72.546257 124.919136 22.450319 -49.705719 27.897476 40.793964 -2.281399 -0.751361 27.051277 18.686485 18.650116 17.636629 -26.322729 52.411201 -19.466661 -14.395597 29.410393 0.0 -8.774822 -2e-06 15.251606 -18.630962 6.361291 -0.609778 -1.795655 -3.889327 -4.807087 -11.046809 -2.937853 7e-06 -20.976015 -3e-06 -5.019966 -25.033554 -4.03188 4e-06 1e-06 0.0 -10.634535 -5.686971 -3.565591 10.573275 -17.922951 -3.113899 4e-06 -13.821211 0.0 -0.501776 -31.181505 -4.027017 -11.224441 -59.316963 7.206458 -13.982714 -7.150199 -2.875041 13.77273 -8.401492 -3.218243 0.347735 -34.211552 0.771654 -0.963028 -17.73337 2.621019 -0.0 0.0 1e-06 -17.346422 -20.095221 -4.201783 21.757559 -1.638377 3.866428 1e-06 -6.338824 1e-06 -1.697587 -22.591749 -6.194008 0.0 -5e-06 -1e-06 78.950233 -76.155083 121.943176 38.148544 -44.941158 22.280689 41.792805 0.169451 0.277964 5.212982 23.409979 23.717587 22.182117 -20.375893 49.933315 -16.701815 -16.743528 28.47653 -3e-06 -12.6906 0.0 16.643471 -18.053293 2.387102 -0.10592 -1.513856 -4.275882 -5.039041 -5.612873 -2.953557 5e-06 -11.020521 -2e-06 -6.111296 -15.89533 -3.840469 0.0 0.0 0.0 -10.28337 -5.680287 -4.341839 11.028296 -11.302406 -2.372634 -1.384268 -14.23858 -6.320122 -0.625436 -26.924191 -3.827601 -4.429118 -49.766926 -3.87556 -13.708524 -7.363479 -3.720939 18.141153 -14.052739 -3.242677 8e-06 -18.78727 -2e-06 -0.429711 -8.456043 2.555504 0.0 0.0 0.0 -15.923534 -20.094482 -5.473587 30.41921 -7.190827 1.735925 2e-06 -8.162926 -0.0 -1.861899 -22.861469 -6.167942 -0.0 -3e-06 -1e-06 -178.634003 -1.007592 -8.76308 9.13791 -0.007257 0.012894 -74.721703 -4.18719 -9.782045 -5.484071 1.62059 2.142663 -1.000001 0.0 -0.0 1.175322 -13.114921 -9.484595 12.850863 -0.032875 0.186709 -80.327812 8.177032 -7.085436 -5.613082 0.598967 1.661934 -1.000002 0.0 0.0 
